<mxfile host="app.diagrams.net" modified="2022-04-17T08:22:39.190Z" agent="5.0 (X11; Linux x86_64) AppleWebKit/537.36 (KHTML, like Gecko) Chrome/99.0.4844.82 Safari/537.36" etag="VKjWXPA9ATJcrvfxDCpM" version="17.4.5" type="github">
  <diagram id="ifW-ZEth79NqCycpJ7yl" name="第 1 页">
    <mxGraphModel dx="987" dy="530" grid="0" gridSize="10" guides="1" tooltips="1" connect="1" arrows="1" fold="1" page="1" pageScale="1" pageWidth="1169" pageHeight="827" math="0" shadow="0">
      <root>
        <mxCell id="0" />
        <mxCell id="1" parent="0" />
        <mxCell id="Ge6wB0JUbA7cfDgpEqyy-1" value="&lt;font style=&quot;font-size: 11px ; line-height: 1.2&quot;&gt;:客服后台&lt;/font&gt;" style="shape=umlLifeline;perimeter=lifelinePerimeter;whiteSpace=wrap;html=1;container=1;collapsible=0;recursiveResize=0;outlineConnect=0;rounded=1;shadow=0;comic=0;labelBackgroundColor=none;strokeWidth=1;fontFamily=Verdana;fontSize=12;align=center;" vertex="1" parent="1">
          <mxGeometry x="344" y="207" width="100" height="302" as="geometry" />
        </mxCell>
        <mxCell id="Ge6wB0JUbA7cfDgpEqyy-2" value="" style="html=1;points=[];perimeter=orthogonalPerimeter;rounded=0;shadow=0;comic=0;labelBackgroundColor=none;strokeWidth=1;fontFamily=Verdana;fontSize=12;align=center;" vertex="1" parent="Ge6wB0JUbA7cfDgpEqyy-1">
          <mxGeometry x="45" y="145" width="10" height="113" as="geometry" />
        </mxCell>
        <mxCell id="Ge6wB0JUbA7cfDgpEqyy-3" value=":聊天后台" style="shape=umlLifeline;perimeter=lifelinePerimeter;whiteSpace=wrap;html=1;container=1;collapsible=0;recursiveResize=0;outlineConnect=0;rounded=1;shadow=0;comic=0;labelBackgroundColor=none;strokeWidth=1;fontFamily=Verdana;fontSize=12;align=center;" vertex="1" parent="1">
          <mxGeometry x="504" y="207" width="100" height="305" as="geometry" />
        </mxCell>
        <mxCell id="Ge6wB0JUbA7cfDgpEqyy-4" value="" style="html=1;points=[];perimeter=orthogonalPerimeter;rounded=0;shadow=0;comic=0;labelBackgroundColor=none;strokeWidth=1;fontFamily=Verdana;fontSize=12;align=center;" vertex="1" parent="Ge6wB0JUbA7cfDgpEqyy-3">
          <mxGeometry x="45" y="98" width="10" height="172" as="geometry" />
        </mxCell>
        <mxCell id="Ge6wB0JUbA7cfDgpEqyy-5" value=":用户" style="shape=umlLifeline;perimeter=lifelinePerimeter;whiteSpace=wrap;html=1;container=1;collapsible=0;recursiveResize=0;outlineConnect=0;rounded=1;shadow=0;comic=0;labelBackgroundColor=none;strokeWidth=1;fontFamily=Verdana;fontSize=12;align=center;" vertex="1" parent="1">
          <mxGeometry x="177" y="207" width="100" height="305" as="geometry" />
        </mxCell>
        <mxCell id="Ge6wB0JUbA7cfDgpEqyy-6" value="" style="html=1;points=[];perimeter=orthogonalPerimeter;rounded=0;shadow=0;comic=0;labelBackgroundColor=none;strokeWidth=1;fontFamily=Verdana;fontSize=12;align=center;" vertex="1" parent="Ge6wB0JUbA7cfDgpEqyy-5">
          <mxGeometry x="45" y="100" width="10" height="155" as="geometry" />
        </mxCell>
        <mxCell id="Ge6wB0JUbA7cfDgpEqyy-7" value="" style="html=1;verticalAlign=bottom;endArrow=block;labelBackgroundColor=none;fontFamily=Verdana;fontSize=12;edgeStyle=elbowEdgeStyle;elbow=vertical;" edge="1" parent="1">
          <mxGeometry x="-0.0308" y="-57" relative="1" as="geometry">
            <mxPoint x="232" y="309" as="sourcePoint" />
            <mxPoint as="offset" />
            <mxPoint x="548" y="309" as="targetPoint" />
          </mxGeometry>
        </mxCell>
        <mxCell id="Ge6wB0JUbA7cfDgpEqyy-8" value="&lt;span style=&quot;font-family: &amp;#34;verdana&amp;#34; ; font-size: 12px ; background-color: rgb(248 , 249 , 250)&quot;&gt;申请退货&lt;/span&gt;" style="edgeLabel;html=1;align=center;verticalAlign=middle;resizable=0;points=[];" vertex="1" connectable="0" parent="Ge6wB0JUbA7cfDgpEqyy-7">
          <mxGeometry x="-0.1846" y="-2" relative="1" as="geometry">
            <mxPoint x="33" y="-1" as="offset" />
          </mxGeometry>
        </mxCell>
        <mxCell id="Ge6wB0JUbA7cfDgpEqyy-9" style="edgeStyle=orthogonalEdgeStyle;rounded=0;orthogonalLoop=1;jettySize=auto;html=1;" edge="1" parent="1" source="Ge6wB0JUbA7cfDgpEqyy-4">
          <mxGeometry relative="1" as="geometry">
            <mxPoint x="399" y="358" as="targetPoint" />
            <Array as="points">
              <mxPoint x="400" y="358" />
            </Array>
          </mxGeometry>
        </mxCell>
        <mxCell id="Ge6wB0JUbA7cfDgpEqyy-10" value="返回数据给客服" style="edgeLabel;html=1;align=center;verticalAlign=middle;resizable=0;points=[];" vertex="1" connectable="0" parent="Ge6wB0JUbA7cfDgpEqyy-9">
          <mxGeometry x="0.1496" y="1" relative="1" as="geometry">
            <mxPoint x="12" y="-1" as="offset" />
          </mxGeometry>
        </mxCell>
        <mxCell id="Ge6wB0JUbA7cfDgpEqyy-11" style="edgeStyle=orthogonalEdgeStyle;rounded=0;orthogonalLoop=1;jettySize=auto;html=1;entryX=0.967;entryY=0.64;entryDx=0;entryDy=0;entryPerimeter=0;" edge="1" parent="1" source="Ge6wB0JUbA7cfDgpEqyy-2" target="Ge6wB0JUbA7cfDgpEqyy-6">
          <mxGeometry relative="1" as="geometry">
            <Array as="points">
              <mxPoint x="358" y="406" />
              <mxPoint x="358" y="406" />
            </Array>
          </mxGeometry>
        </mxCell>
        <mxCell id="Ge6wB0JUbA7cfDgpEqyy-12" value="给用户一个答复" style="edgeLabel;html=1;align=center;verticalAlign=middle;resizable=0;points=[];" vertex="1" connectable="0" parent="Ge6wB0JUbA7cfDgpEqyy-11">
          <mxGeometry x="0.2712" y="1" relative="1" as="geometry">
            <mxPoint x="25" as="offset" />
          </mxGeometry>
        </mxCell>
      </root>
    </mxGraphModel>
  </diagram>
</mxfile>
